# xmcd
#
# Track frame offsets: 
#        150
#        18701
#        38416
#        54920
#        68400
#        79591
#        98803
#        119407
#        134014
#
# Disc length: 2002 seconds
#
# Revision: 0
# Processed by: cddbd v1.5.2PL0 Copyright (c) Steve Scherf et al.
# Submitted via: ExactAudioCopy v0.99pb4
#
DISCID=6c07d009
DTITLE=The Judds (Wynonna and Naomi) - River of Time
DYEAR=1989
DGENRE=Country
TTITLE0=One Man Woman
TTITLE1=Young Love
TTITLE2=Not My Baby
TTITLE3=Let Me Tell You About Love
TTITLE4=Sleepless Nights
TTITLE5=Water of Love
TTITLE6=River of Time
TTITLE7=Cadillac Red
TTITLE8=Guardian Angel
EXTD=
EXTT0=
EXTT1=
EXTT2=
EXTT3=
EXTT4=
EXTT5=
EXTT6=
EXTT7=
EXTT8=
PLAYORDER=
